<?xml version="1.0" encoding="UTF-8" standalone="no"?>
<!-- Created with Inkscape (http://www.inkscape.org/) -->

<svg
   width="80mm"
   height="80mm"
   viewBox="0 0 80 80"
   version="1.1"
   id="svg5"
   inkscape:version="1.3.1 (9b9bdc1480, 2023-11-25, custom)"
   sodipodi:docname="logo_orig_rounded_v2.svg"
   xmlns:inkscape="http://www.inkscape.org/namespaces/inkscape"
   xmlns:sodipodi="http://sodipodi.sourceforge.net/DTD/sodipodi-0.dtd"
   xmlns="http://www.w3.org/2000/svg"
   xmlns:svg="http://www.w3.org/2000/svg">
  <sodipodi:namedview
     id="namedview7"
     pagecolor="#ffffff"
     bordercolor="#000000"
     borderopacity="0.25"
     inkscape:showpageshadow="2"
     inkscape:pageopacity="0"
     inkscape:pagecheckerboard="true"
     inkscape:deskcolor="#d1d1d1"
     inkscape:document-units="mm"
     showgrid="false"
     inkscape:zoom="1.4877245"
     inkscape:cx="75.954922"
     inkscape:cy="128.72007"
     inkscape:window-width="1920"
     inkscape:window-height="1001"
     inkscape:window-x="0"
     inkscape:window-y="0"
     inkscape:window-maximized="1"
     inkscape:current-layer="layer1" />
  <defs
     id="defs2">
    <inkscape:path-effect
       effect="fillet_chamfer"
       id="path-effect1"
       is_visible="true"
       lpeversion="1"
       nodesatellites_param="F,0,0,1,0,5.0639252,0,1 @ F,0,1,1,0,5.0639252,0,1 @ F,0,1,1,0,5.0639252,0,1 @ F,0,1,1,0,5.0639252,0,1 @ F,0,1,1,0,5.0639252,0,1 @ F,0,1,1,0,5.0639252,0,1 @ F,0,1,1,0,5.0639252,0,1 @ F,0,1,1,0,5.0639252,0,1 @ F,0,1,1,0,5.0639252,0,1 @ F,0,1,1,0,5.0639252,0,1"
       radius="0"
       unit="px"
       method="auto"
       mode="F"
       chamfer_steps="1"
       flexible="false"
       use_knot_distance="true"
       apply_no_radius="true"
       apply_with_radius="true"
       only_selected="false"
       hide_knots="false" />
  </defs>
  <g
     inkscape:label="Calque 1"
     inkscape:groupmode="layer"
     id="layer1">
    <path
       id="rect1780"
       style="fill:#ffffff;fill-opacity:1;stroke-width:0.275431"
       d="m 24.499797,5.0639252 0,19.3721578 a 5.0639252,5.0639252 45 0 0 5.063925,5.063925 h 15.872113 a 5.0639252,5.0639252 45 0 1 5.063925,5.063925 v 11.872358 a 5.0639252,5.0639252 135 0 1 -5.063925,5.063925 H 5.0639252 A 5.0639252,5.0639252 135 0 0 0,56.564141 v 18.371702 a 5.0639252,5.0639252 45 0 0 5.0639252,5.063925 H 74.935843 a 5.0639252,5.0639252 135 0 0 5.063925,-5.063925 V 29.563722 a 5.0639252,5.0639252 45 0 0 -5.063925,-5.063925 l -14.371946,0 A 5.0639252,5.0639252 45 0 1 55.499972,19.435872 V 5.0639252 A 5.0639252,5.0639252 45 0 0 50.436047,0 H 29.563722 a 5.0639252,5.0639252 135 0 0 -5.063925,5.0639252 z"
       sodipodi:nodetypes="ccccccccccc"
       inkscape:path-effect="#path-effect1"
       inkscape:original-d="M 24.499797,0 V 29.500008 H 50.49976 V 51.500216 H 0 V 79.999768 H 79.999768 V 24.499797 H 55.499972 V 0 Z" />
    <rect
       style="fill:#2196f3;fill-opacity:1;stroke-width:0.264583"
       id="rect1514-6-7-5"
       width="21"
       height="21"
       x="29.5"
       y="3.5"
       ry="4.2781901" />
    <rect
       style="fill:#2196f3;fill-opacity:1;stroke-width:0.264583"
       id="rect1514-6-7-5-7"
       width="21"
       height="21"
       x="55.5"
       y="29.5"
       ry="4.2781901" />
    <rect
       style="fill:#2196f3;fill-opacity:1;stroke-width:0.264583"
       id="rect1514-6-7-5-7-5"
       width="21"
       height="21"
       x="55.5"
       y="55.5"
       ry="4.2781901" />
    <rect
       style="fill:#2196f3;fill-opacity:1;stroke-width:0.264583"
       id="rect1514-6-7-5-7-5-3"
       width="21"
       height="21"
       x="29.5"
       y="55.5"
       ry="4.2781901" />
    <rect
       style="fill:#2196f3;fill-opacity:1;stroke-width:0.264583"
       id="rect1514-6-7-5-7-5-3-5"
       width="21"
       height="21"
       x="3.5"
       y="55.5"
       ry="4.2781901" />
  </g>
</svg>
